<?xml version="1.0" encoding="UTF-8"?>
<svg enable-background="new 0 0 2560 1600" version="1.1" viewBox="0 0 2560 1600" xml:space="preserve" xmlns="http://www.w3.org/2000/svg">
					<path d="m831 845.13c-113.76-14.573-268.43-46.89-403.64-84.339-118.28-32.76-279.06-85.06-373.33-148.18l-1.6085-1.0775 0.0937-1.9335c0.2974-6.1293 0.7268-12.496 1.277-18.923 5.6138-65.574 24.701-147.91 56.732-244.72 27.247-82.348 64.847-178.08 111.76-284.53l1.1384-2.5831 2.7521 0.6247c124.52 28.247 269.83 62.035 403.46 98.459 139.82 38.112 252.46 75.12 344.35 113.14l2.518 1.0419-0.45 2.6874c-41.477 247.67-86.416 428.21-141.42 568.19l-0.976 2.4829-2.6458-0.3389z" fill="#FEF3BB"/>
					<path d="m225.42 62.805c279.26 63.349 547.17 128.64 747.25 211.42-35.75 213.47-79.364 410.07-141.23 567.5-207.14-26.535-609.44-120.79-775.5-231.97 0.2981-6.15 0.7224-12.417 1.2685-18.796 11.995-140.12 82.791-334.31 168.21-528.16m-3.99-7.9268l-2.2763 5.1655c-46.955 106.56-84.595 202.39-111.88 284.84-32.115 97.062-51.256 179.66-56.893 245.5-0.5538 6.4699-0.9864 12.879-1.2854 19.049l-0.1874 3.8676 3.2175 2.1542c94.655 63.371 255.8 115.8 374.32 148.63 135.35 37.49 290.2 69.844 404.12 84.436l5.2919 0.6779 1.9514-4.9654c55.098-140.2 100.1-320.97 141.61-568.88l0.9003-5.375-5.0358-2.0835c-92.025-38.075-204.8-75.128-344.75-113.28-133.69-36.441-279.05-70.239-403.6-98.495l-5.505-1.2489z" fill="#CB0300"/>
				<path d="m225.42 62.805c26.226 101.59 63.975 209.22 110.33 321.37 28.878 69.858 61.096 141.47 95.952 214.46 93.274-25.231 165.59-77.037 239.76-118.82 108.36-61.05 208.64-129.84 301.21-205.59" fill="none" stroke="#CB0300" stroke-miterlimit="10" stroke-width="7.1401"/>
				<path d="m671.46 479.82c61.082 146.97 122.4 294.75 159.98 361.91" fill="none" stroke="#CB0300" stroke-miterlimit="10" stroke-width="7.1401"/>
				<path d="m335.75 384.18c-86.841 71.192-179.88 140.05-278.55 206.79" fill="none" stroke="#CB0300" stroke-miterlimit="10" stroke-width="7.1401"/>
				<path d="m488.63 407.2c0.6659-30.702-6.6983-57-22.513-80.399-20.065-29.688-27.127-55.622-19.884-73.023 2.9553-7.1006 9.8429-16.204 25.871-19.247 6.6796-1.2686 13.206-1.912 19.4-1.912 22.228 0 40.988 8.2586 54.252 23.882 9.8648 11.62 16.494 27.126 19.508 45.426 12.541-13.878 30.148-22.053 48.769-22.053 20.214 0 38.964 9.582 51.445 26.29 12.715 17.022 15.618 36.194 8.173 53.985-8.3565 19.968-28.43 34.417-52.388 37.708-22.093 3.0358-40.247 3.7782-56.263 4.4328-25.059 1.0241-44.852 1.8333-68.269 10.646l-8.2928 3.1211 0.1919-8.8585z" fill="#FC2B31"/>
				<path d="m491.5 238.61c42.204-5e-4 67.137 31.482 69.455 79.699 11.566-21.258 32.308-32.444 53.075-32.444 17.287 0 34.59 7.7466 46.644 23.884 27.092 36.268 0.3896 76.591-40.23 82.172-56.065 7.7036-86.024 0.428-125.83 15.407 0.6921-31.91-7.1853-59.688-23.539-83.884-28.43-42.065-29.909-76.942 2.1399-83.028 6.4076-1.2167 12.507-1.8062 18.281-1.8063m1e-3 -11.984h-0.0011c-6.5671 1e-4 -13.47 0.6786-20.517 2.0167-18.651 3.5415-26.763 14.371-30.285 22.832-8.0428 19.324-0.7796 47.267 20.452 78.68 15.096 22.336 22.125 47.495 21.487 76.914l-0.3843 17.717 16.586-6.2419c22.515-8.4734 41.883-9.2651 66.403-10.268 16.151-0.6603 34.456-1.4087 56.833-4.4833 26.049-3.5792 47.928-19.417 57.1-41.332 3.9191-9.3651 5.2898-19.576 3.9639-29.529-1.413-10.606-5.741-20.819-12.864-30.354-13.622-18.237-34.123-28.696-56.245-28.696-12.63 0-25.108 3.4294-36.085 9.9174-3.1631 1.8696-6.1796 3.9839-9.0272 6.3198-10.18-39.788-38.256-63.493-77.417-63.493z" fill="#BD0005"/>
		<g fill="#B09F50" opacity=".8">
			<polygon points="225.42 62.805 335.75 384.18 57.207 590.97 291.33 370.1 217.06 81.886"/>
			<path d="m301.03 412.25l34.72-28.072 95.952 214.46c79.5-23.371 159.6-66.614 239.95-118.36l115.56 282.06-122.69-263.27-247.66 140.95-115.83-227.76z"/>
			<polygon points="671.66 480.28 964.95 280.52 740.42 477.66 802.96 785.54"/>
		</g>
		<path d="m1871.1 785.46l-75.337-142.29c17.192-167.17 110.21-380.5 202.16-400.3 74.238-15.986 117.75 24.415 101.46 115.54-4.8872 27.347-41.714 71.006-83.166 118.46 77.454-75.113 135.78-109.01 167.12-49.106 38 72.622-36.02 107.08-132.01 143.39 84.844-2.4763 151.6 6.7385 158.7 75.958 5.9604 58.133-74.651 51.364-160.96 42.632 67.674 49.794 126.55 98.912 90.202 140.7-36.049 24.741-98.242 4.5914-163.28-20.115-35.244-13.388-60.982-20.358-104.89-24.875z" fill="#E7000D"/>
			<path d="m1780.8 1363.1l18.546-0.2854c74.517 94.84 183.42 167.75 255.61 158.62 28.143-3.5594 50.972-17.662 69.333-33.382 5.2527-23.156 14.786-42.744 28.247-59.061-2.6782 20.332-6.2263 39.232-11.983 54.496 16.858-3.3937 32.85-3.8224 47.934-1.1412-12.203 7.306-27.188 12.42-44.51 15.693 19.816 10.481 37.067 20.841 46.222 30.815-16.051-1.4667-35.598-10.187-56.208-21.114-26.057 27.666-64.022 41.635-110.42 36.236-78.463-9.1302-177.56-95.026-242.77-180.88z"/>
			<path d="m1804.1 1280.6l18.546-0.2854c74.517 94.84 172.33 155.78 244.52 146.65 28.142-3.5596 50.972-17.662 69.333-33.383 5.2524-23.156 14.786-42.744 28.247-59.061-2.6782 20.332-6.2263 39.232-11.983 54.496 16.859-3.3938 32.85-3.8224 47.934-1.1414-12.203 7.3062-27.188 12.42-44.51 15.693 19.817 10.481 37.067 20.841 46.222 30.815-16.051-1.4666-35.597-10.186-56.208-21.114-26.058 27.666-64.022 41.635-110.42 36.236-78.463-9.1302-166.47-83.06-231.68-168.91z"/>
		<path d="m1059.6 428.23c-59.47-14.556-129.11-16.8-203.46-13.342-3.6051 0.1676-5.1288 4.6993-2.3242 6.9705 44.465 36.008 104.31 68.415 174.54 98.387l31.243-92.016z" fill="#FE5C00"/>
		<path d="m1038 423.81c164.79-254.5 396.02-316.14 585.48-236.25 175.38 73.954 325.27 259.07 373.2 341.24 55.676 95.445 97.865 201.8 181.46 232.82 104.74 38.871 257.76-0.0992 322.02-80.572 3.533-4.4246 10.685-1.9927 10.799 3.6682 5.7993 287.12-249.69 671.84-587.32 687.49-406.3 3.4238-782.92-124.4-919.87-481.62-51.542-170.17-38.344-325.35 34.238-466.78z" fill="#87C6C8"/>
		<path d="m1834.6 849.79l5.1359-160.92c97.828-136.65 284.39-275.77 374.06-247.37 72.394 22.931 90.145 79.591 30.815 150.65-17.805 21.324-71.435 40.976-130.96 61.629 104.51-26.82 171.97-27.336 169.48 40.23-3.0134 81.908-84.379 75.128-185.74 59.061 74.906 39.922 128.31 81.029 100.15 144.66-23.651 53.438-90.297 7.5859-160.92-42.798 34.076 76.799 60.851 148.65 8.5597 166.91-43.573 3.609-87.589-44.729-131.82-98.436-23.967-29.103-42.861-47.918-78.748-73.613z" fill="#FC4742"/>
			<ellipse transform="matrix(.4766 -.8791 .8791 .4766 185.13 1342.2)" cx="1219.8" cy="515.63" rx="47.741" ry="77.116" enable-background="new    " fill="#FEBDD1" opacity=".8"/>
		<path d="m1357.5 480.34c-3.744-2.2466-9.0844-2.8582-13.301-3.5589-5.1385-0.8538-10.323-1.4145-15.514-1.8284-1.0068-0.0803-2.014-0.1548-3.0215-0.2242-0.5092-0.0371-1.0187-0.0685-1.5286-0.0942-1.1102-0.0628-0.9438-0.4419-1.3496-1.3913-0.9296-2.1744-1.8282-4.3893-2.9155-6.4905-1.0228-1.9767-2.1931-3.8909-3.3053-5.8193-0.4244-0.7358-0.8618-1.4498-1.3353-2.1546-1.2761-1.8049-3.4064-3.8994-4.224-5.9393-0.0708-0.1768-0.3993-0.3289-0.4202-0.5116-0.0581-0.5086 0.9478-1.1097 1.438-1.5244 1.7959-1.5198 3.6046-3.0247 5.4274-4.5122 4.1014-3.3472 8.265-6.6345 12.596-9.6813 3.3475-2.3549 6.9774-5.0357 11.034-5.9558-5.9404-0.3139-12.278 2.5901-17.703 4.6895-6.5594 2.5384-13.004 5.3762-19.385 8.3323-1.0952 0.5073-2.5297-1.7311-3.3629-2.5615-1.1948-1.1906-2.4106-2.3602-3.6492-3.5053-2.6926-2.4899-5.493-4.8651-8.4138-7.0836-1.3809-1.0489-14.56-9.2798-14.528-9.3648 4.2007-11.091 8.4014-22.181 12.602-33.272 0.0762-0.2011 0.1523-0.4023 0.2286-0.6035-6.9149 9.3735-13.83 18.747-20.745 28.12-0.4143 0.5617-0.8286 1.1233-1.243 1.685-0.4403 0.597-5.41-1.5201-6.3392-1.7809-7.2437-2.0332-14.704-3.0508-22.227-2.969-1.7026 0.0185-3.405 0.0752-5.1038 0.1922-0.1663-1.5309-0.3174-3.0635-0.4521-4.5975-0.3351-3.8132-0.5773-7.6375-0.6469-11.465-0.0925-5.0886-0.7234-12.979 2.8306-17.174-2.834 1.8629-4.2892 5.5981-5.4561 8.6364-1.7721 4.6143-3.027 9.4299-4.134 14.241-0.5289 2.2989-1.0146 4.6077-1.4657 6.9232-0.1991 1.0217-0.3914 2.0446-0.577 3.0689-0.3142 1.7341-0.2683 1.7462-2.0685 2.1518-4.7039 1.0596-9.3103 2.5353-13.775 4.3527-14.601 5.9428-27.125 15.397-38.004 26.678 23.821-13.051 49.954-23.809 77.59-17.812 14.124 3.0646 26.938 10.603 37.67 20.13 7.671 6.8092 15.14 14.706 20.49 23.524 9.4442 15.567 13.619 33.992 12.123 52.179-0.8611 10.472-3.1733 20.442-6.3223 30.443-2.7091 8.6039-6.9592 16.623-11.016 24.639 9.1443-9.3816 17.164-19.783 22.356-31.914 1.3585-3.1744 2.6128-6.3222 3.7239-9.5922 3.116-0.6712 6.2751-1.1639 9.4368-1.5615 6.5054-0.8178 13.071-1.1945 19.55-0.0161-7.7776-5.0102-16.998-7.572-25.966-9.5213 2.8127-12.605 2.7904-26.22-0.0669-38.8-0.1295-0.5652-0.2556-1.1311-0.3784-1.6978-0.2216-1.1682 0.2695-0.8554 1.303-1.0881 1.6407-0.3695 3.2849-0.7239 4.933-1.0592 3.3203-0.6755 6.6569-1.268 10.012-1.7464 5.358-0.764 10.804-1.3136 16.156-0.2984-0.5186-0.2722-1.0371-0.5441-1.5554-0.816-0.4971-0.2982 0.9897 0.5191 0 0z"/>
</svg>
